<svg width="1106" height="342" xmlns="http://www.w3.org/2000/svg" xmlns:xlink="http://www.w3.org/1999/xlink" overflow="hidden"><defs><clipPath id="clip0"><path d="M87 223 1193 223 1193 565 87 565Z" fill-rule="evenodd" clip-rule="evenodd"/></clipPath></defs><g clip-path="url(#clip0)" transform="translate(-87 -223)"><path d="M640.5 564.5C546.612 564.5 470.5 488.388 470.5 394.5 470.5 300.612 546.612 224.5 640.5 224.5 734.388 224.5 810.5 300.612 810.5 394.5 810.5 439.587 792.589 482.827 760.708 514.708L810.5 514.708 810.5 564.5Z" stroke="#000000" stroke-miterlimit="8" fill="#FFFFFF" fill-rule="evenodd"/><text font-family="DengXian,DengXian_MSFontService,sans-serif" font-weight="400" font-size="37" transform="translate(565.333 406)">测试服务<tspan font-size="27" x="-421.9" y="-20">测试任务</tspan><tspan font-size="27" x="-315.233" y="-20">ID</tspan><tspan font-size="27" x="-450.233" y="12">任务配置文件</tspan><tspan font-size="27" x="439.503" y="-36">任务状态</tspan><tspan font-size="27" x="439.503" y="-4">测试结果</tspan><tspan font-size="27" x="439.503" y="28">任务日志</tspan></text><path d="M285.5 354 389.5 354 389.5 313.5 470.5 394.5 389.5 475.5 389.5 435 285.5 435Z" stroke="#000000" stroke-miterlimit="8" fill="#FFFFFF" fill-rule="evenodd"/><text font-family="DengXian,DengXian_MSFontService,sans-serif" font-weight="400" font-size="24" transform="translate(333.179 401)">输入</text><path d="M810.5 354 914.5 354 914.5 313.5 995.5 394.5 914.5 475.5 914.5 435 810.5 435Z" stroke="#000000" stroke-miterlimit="8" fill="#FFFFFF" fill-rule="evenodd"/><text font-family="DengXian,DengXian_MSFontService,sans-serif" font-weight="400" font-size="24" transform="translate(858.494 401)">输出</text></g></svg>