<svg width="729" height="246" xmlns="http://www.w3.org/2000/svg" xmlns:xlink="http://www.w3.org/1999/xlink" overflow="hidden"><defs><clipPath id="clip0"><path d="M473 44 1202 44 1202 290 473 290Z" fill-rule="evenodd" clip-rule="evenodd"/></clipPath></defs><g clip-path="url(#clip0)" transform="translate(-473 -44)"><rect x="811.5" y="185.5" width="381" height="80" stroke="#000000" stroke-miterlimit="8" fill="#FFFFFF"/><text font-family="DengXian,DengXian_MSFontService,sans-serif" font-weight="700" font-size="32" transform="translate(1059.46 236)">Daemon</text><rect x="483.5" y="130.5" width="381" height="80" stroke="#000000" stroke-miterlimit="8" fill="#FFFFFF"/><text font-family="DengXian,DengXian_MSFontService,sans-serif" font-weight="700" font-size="32" transform="translate(492.536 181)">TaskList</text><path d="M0-0.5 67.5689-0.5 67.5689 84.007 66.5689 84.007 66.5689 0 67.0689 0.5 0 0.5ZM71.0689 82.6736 67.0689 90.6736 63.0689 82.6736Z" transform="matrix(-4.37114e-08 1 1 4.37114e-08 731.5 184.5)"/><path d="M0-0.5 27.7977-0.5 27.7977 184.939 26.7977 184.939 26.7977 0 27.2977 0.5 0 0.5ZM31.2977 183.606 27.2977 191.606 23.2977 183.606Z" transform="matrix(-4.37114e-08 -1 -1 4.37114e-08 1019.11 197.798)"/><rect x="483.5" y="47.5001" width="709" height="39" stroke="#000000" stroke-miterlimit="8" fill="#FFFFFF"/><text font-family="DengXian,DengXian_MSFontService,sans-serif" font-weight="400" font-size="24" transform="translate(745.301 74)">WEB API<tspan x="88.3334" y="0">接口封装</tspan></text><path d="M483.5 130.5 674 86.5001 864.5 130.5Z" stroke="#000000" stroke-miterlimit="8" fill="#FFFFFF" fill-rule="evenodd"/><text font-family="DengXian,DengXian_MSFontService,sans-serif" font-weight="400" font-size="24" transform="translate(649.506 127)">接口</text><rect x="657.5" y="232.5" width="90" height="38" stroke="#000000" stroke-miterlimit="8" fill="#FFFFFF"/><text font-family="DengXian,DengXian_MSFontService,sans-serif" font-weight="700" font-size="32" transform="translate(669.753 262)">Task</text><rect x="1008.5" y="152.5" width="126" height="27" stroke="#000000" stroke-miterlimit="8" fill="none"/><text font-family="DengXian,DengXian_MSFontService,sans-serif" font-weight="400" font-size="24" transform="translate(1022.86 173)">状态信息</text><rect x="822.5" y="240.5" width="218" height="22" stroke="#000000" stroke-miterlimit="8" fill="none"/><text font-family="DengXian,DengXian_MSFontService,sans-serif" font-weight="400" font-size="19" transform="translate(893.889 257)">任务队列</text><path d="M1019.5 262.5C1001.83 262.5 987.5 248.173 987.5 230.5 987.5 212.827 1001.83 198.5 1019.5 198.5 1037.17 198.5 1051.5 212.827 1051.5 230.5 1051.5 238.987 1048.13 247.126 1042.13 253.127L1051.5 253.127 1051.5 262.5Z" stroke="#000000" stroke-miterlimit="8" fill="#FFFFFF" fill-rule="evenodd"/><text font-family="DengXian,DengXian_MSFontService,sans-serif" font-weight="400" font-size="19" transform="translate(1009.5 224)">运<tspan x="0" y="23">行</tspan></text><rect x="635.5" y="157.5" width="192" height="27" stroke="#000000" stroke-miterlimit="8" fill="none"/><text font-family="DengXian,DengXian_MSFontService,sans-serif" font-weight="400" font-size="21" transform="translate(688.66 177)">任务列表</text></g></svg>